HIERARCHY
ROOT Hips
{
	OFFSET 0.000000 0.000000 0.000000
	CHANNELS 6 Xposition Yposition Zposition Zrotation Yrotation Xrotation 
	JOINT LHipJoint
	{
		OFFSET 0.000000 0.000000 0.000000
		CHANNELS 3 Zrotation Yrotation Xrotation
		JOINT LeftUpLeg
		{
			OFFSET 1.363060 -1.794630 0.839290
			CHANNELS 3 Zrotation Yrotation Xrotation
			JOINT LeftLeg
			{
				OFFSET 2.448110 -6.726130 0.000000
				CHANNELS 3 Zrotation Yrotation Xrotation
				JOINT LeftFoot
				{
					OFFSET 2.562200 -7.039590 0.000000
					CHANNELS 3 Zrotation Yrotation Xrotation
					JOINT LeftToeBase
					{
						OFFSET 0.157640 -0.433110 2.322550
						CHANNELS 3 Zrotation Yrotation Xrotation
						End Site
						{
							OFFSET 0.000000 0.000000 0.000000
						}
					}
				}
			}
		}
	}
	JOINT RHipJoint
	{
		OFFSET 0.000000 0.000000 0.000000
		CHANNELS 3 Zrotation Yrotation Xrotation
		JOINT RightUpLeg
		{
			OFFSET -1.305520 -1.794630 0.839290
			CHANNELS 3 Zrotation Yrotation Xrotation
			JOINT RightLeg
			{
				OFFSET -2.542530 -6.985550 0.000000
				CHANNELS 3 Zrotation Yrotation Xrotation
				JOINT RightFoot
				{
					OFFSET -2.568260 -7.056230 0.000000
					CHANNELS 3 Zrotation Yrotation Xrotation
					JOINT RightToeBase
					{
						OFFSET -0.164730 -0.452590 2.363150
						CHANNELS 3 Zrotation Yrotation Xrotation
						End Site
						{
							OFFSET 0.000000 0.000000 0.000000
						}
					}
				}
			}
		}
	}
}
MOTION
Frames: 28
Frame Time: 0.008333
7.504276 17.703150 0.190626 22.840050 82.800363 42.990495 -11.417519 2.707976 1.114962 -11.987484 8.206737 -31.009098 -0.576404 1.994114 46.160340 2.572450 16.413258 -1.393848 1.922200 -0.000001 -34.119800 9.677640 -3.487593 2.212335 6.095005 -2.620020 -13.924234 1.410147 -0.956259 19.931581 0.235059 2.224764 8.894300 0.269600 -0.000000 -67.239000
7.741009 17.760083 0.211165 22.735939 82.362905 42.992126 -11.204928 2.587810 1.140462 -12.697147 7.808385 -31.806401 -0.757573 1.885796 44.391187 2.522402 15.845615 -2.280388 1.657100 0.000000 -33.846000 9.835950 -3.554462 2.148614 5.524908 -2.755565 -12.971625 1.314006 -0.971375 18.794005 0.238257 2.432280 11.338210 0.436700 0.000000 -68.569100
7.979919 17.808242 0.232004 22.962965 81.970501 43.327571 -10.981271 2.476192 1.204807 -13.378945 7.302011 -32.515079 -0.951927 1.754626 42.421688 2.473417 15.253928 -3.159825 1.405500 0.000000 -33.837600 10.000437 -3.617150 2.080791 4.941648 -2.939869 -12.087692 1.217453 -0.993953 17.818721 0.228505 2.699801 13.657769 0.648600 -0.000000 -69.245001
8.221138 17.847013 0.252599 23.363773 81.624987 43.845426 -10.748994 2.371887 1.309180 -14.016230 6.702097 -33.150770 -1.161424 1.599504 40.245591 2.427916 14.647448 -4.040636 1.166500 0.000000 -34.286600 10.165865 -3.674889 2.011227 4.362438 -3.159851 -11.280324 1.121656 -1.022095 17.023779 0.208021 3.025411 15.825305 0.904500 -0.000000 -69.358000
8.464640 17.875995 0.272491 23.817880 81.323152 44.425041 -10.511066 2.273249 1.451887 -14.595448 6.032956 -33.721172 -1.389006 1.418008 37.849411 2.386013 14.021402 -4.934269 0.936701 0.000000 -35.215100 10.326803 -3.727311 1.940431 3.800024 -3.405854 -10.548450 1.028048 -1.054090 16.416375 0.179247 3.402705 17.818188 1.199901 -0.000000 -69.059600
8.710566 17.894805 0.291078 24.180421 81.060203 44.924474 -10.273870 2.177680 1.631231 -15.097807 5.326368 -34.237794 -1.635581 1.206767 35.214958 2.345080 13.363342 -5.815815 0.721701 -0.000000 -36.634500 10.474620 -3.775725 1.871266 3.274885 -3.656578 -9.887416 0.938604 -1.087591 15.988471 0.144144 3.809818 19.621833 1.521900 0.000001 -68.534299
8.959011 17.903156 0.307744 24.319607 80.829352 45.210963 -10.046051 2.082232 1.843309 -15.505114 4.622035 -34.709565 -1.899246 0.962481 32.329644 2.299242 12.656985 -6.629158 0.533600 -0.000001 -38.616900 10.600446 -3.822210 1.806121 2.806277 -3.889281 -9.285535 0.855153 -1.120714 15.723105 0.104599 4.219555 21.229930 1.852900 -0.000000 -67.974300
9.210021 17.900660 0.321921 24.113502 80.622773 45.158694 -9.838285 1.983899 2.081802 -15.800779 3.963725 -35.144980 -2.174696 0.683847 29.204971 2.239479 11.883454 -7.304283 0.386700 -0.000000 -40.961100 10.695923 -3.869487 1.747105 2.412171 -4.080577 -8.725172 0.779292 -1.152141 15.597207 0.062561 4.604617 22.643740 2.173500 -0.000000 -67.551000
9.463458 17.886883 0.333099 23.463971 80.431954 44.660744 -9.662431 1.880340 2.336538 -15.974046 3.400127 -35.558378 -2.452627 0.374937 25.896497 2.154676 11.026716 -7.761937 0.294400 0.000000 -43.461300 10.754596 -3.920429 1.695809 2.106031 -4.210822 -8.183477 0.712066 -1.181278 15.586728 0.020046 4.943214 23.869647 2.466800 -0.000000 -67.392900
9.719133 17.861381 0.341000 22.317864 80.248507 43.652318 -9.529326 1.771279 2.593465 -16.025196 2.977652 -35.973291 -2.719840 0.048493 22.513646 2.034034 10.082870 -7.912396 0.268699 0.000000 -45.962300 10.773854 -3.977336 1.653620 1.894320 -4.266519 -7.636677 0.653740 -1.208194 15.669494 -0.020933 5.223882 24.917965 2.721400 -0.000000 -67.568800
9.976559 17.823839 0.345668 20.699298 80.064896 42.143324 -9.444575 1.659711 2.835577 -15.972279 2.730587 -36.424274 -2.963597 -0.272436 19.231339 1.870826 9.054993 -7.704854 0.307000 0.000000 -48.316400 10.757097 -4.041383 1.621493 1.770049 -4.247640 -7.064121 0.603498 -1.233619 15.829859 -0.058398 5.452009 25.801293 2.936500 0.000000 -68.084900
10.235089 17.774114 0.347577 18.720572 79.877536 40.231876 -9.405279 1.551614 3.044018 -15.854658 2.677609 -36.964288 -3.177777 -0.555656 16.299668 1.665226 7.933641 -7.190984 0.382100 0.000001 -50.041201 10.713197 -4.112766 1.600387 1.713153 -4.169330 -6.453784 0.559584 -1.258631 16.060120 -0.090704 5.648750 26.534151 3.122200 -0.000000 -68.895800
10.493960 17.712632 0.347923 16.637276 79.692413 38.168672 -9.397552 1.455975 3.211204 -15.723435 2.771292 -37.627339 -3.356940 -0.771933 13.927737 1.430618 6.771990 -6.397125 0.475100 0.000000 -51.449800 10.660623 -4.189397 1.588916 1.679745 -4.067578 -5.812496 0.519081 -1.285079 16.362129 -0.117204 5.854139 27.132060 3.301499 0.000000 -69.899300
10.752164 17.640238 0.348155 14.762073 79.528086 36.268961 -9.401876 1.379235 3.340378 -15.619891 2.911214 -38.432667 -3.499082 -0.900451 12.302618 1.191363 5.643152 -5.447928 0.557600 0.000000 -52.492100 10.619149 -4.268528 1.582739 1.617071 -3.990926 -5.162209 0.479185 -1.315152 16.747257 -0.138148 6.116617 27.611262 3.504300 -0.000000 -70.967400
11.008645 17.558113 0.349657 13.385588 79.412629 34.832881 -9.400412 1.324149 3.443246 -15.562558 2.971385 -39.378699 -3.600436 -0.931452 11.554297 0.975397 4.636984 -4.502618 0.611700 0.000000 -53.001200 10.605302 -4.347749 1.575337 1.477358 -3.988960 -4.532856 0.437872 -1.350921 17.232054 -0.154776 6.479611 27.990284 3.759000 -0.000000 -71.958500
11.262351 17.467653 0.353341 12.695348 79.373754 34.054785 -9.382181 1.290014 3.528900 -15.553656 2.856453 -40.449671 -3.654572 -0.862382 11.758585 0.804341 3.827857 -3.709615 0.635100 0.000001 -52.956300 10.629047 -4.425397 1.559767 1.230377 -4.097652 -3.946701 0.394091 -1.393960 17.832054 -0.169193 6.967563 28.290631 4.083100 -0.000000 -72.739600
11.512263 17.370368 0.359831 12.850547 79.433080 34.098286 -9.337762 1.271953 3.609389 -15.581767 2.473570 -41.591364 -3.649442 -0.703017 12.892867 0.696072 3.301149 -3.166061 0.641800 0.000000 -52.376201 10.702016 -4.498030 1.523927 0.844463 -4.369937 -3.430449 0.348092 -1.446465 18.578532 -0.183138 7.612104 28.525964 4.497400 -0.000000 -73.167000
11.757475 17.267606 0.368520 13.735069 79.584524 34.827066 -9.271763 1.263390 3.661210 -15.659080 1.911977 -42.790700 -3.583055 -0.453327 14.993898 0.643135 2.983928 -2.991620 0.625000 -0.000000 -51.117599 10.817484 -4.565957 1.464922 0.342256 -4.793458 -2.958163 0.300290 -1.508370 19.473530 -0.199598 8.376764 28.721588 4.983000 0.000000 -73.179700
11.997319 17.160913 0.378638 15.235090 79.807107 36.105588 -9.188630 1.252900 3.670132 -15.777539 1.229341 -43.971000 -3.448037 -0.131791 17.954696 0.642295 2.857456 -3.218341 0.586500 0.000000 -49.136500 10.971337 -4.625392 1.373426 -0.264186 -5.368371 -2.507735 0.251171 -1.580564 20.530518 -0.220893 9.228546 28.892590 5.522000 0.000000 -72.730200
12.231398 17.052116 0.389001 17.136031 80.063198 37.696998 -9.098287 1.228038 3.622057 -15.920114 0.507698 -45.035601 -3.244957 0.232621 21.594711 0.688052 2.895957 -3.857994 0.522300 0.000000 -46.305800 11.151701 -4.671768 1.242435 -0.950285 -6.066447 -2.047957 0.200302 -1.663247 21.752819 -0.249515 10.100242 29.052836 6.076800 0.000000 -71.835700
12.459712 16.943534 0.398902 19.257314 80.313789 39.409445 -9.008308 1.181263 3.516923 -16.067974 -0.210132 -45.857224 -2.985559 0.598789 25.618273 0.778050 3.117570 -4.853282 0.433600 -0.000000 -42.817400 11.349427 -4.698687 1.065674 -1.706299 -6.855942 -1.563322 0.146156 -1.756796 23.141394 -0.288145 10.911783 29.210439 6.602100 0.000001 -70.579300
12.682731 16.837949 0.408018 21.432777 80.525055 41.085537 -8.922251 1.115069 3.365920 -16.216676 -0.899799 -46.335556 -2.696665 0.928845 29.704475 0.908761 3.534462 -6.140164 0.316600 0.000000 -38.880300 11.557306 -4.700948 0.845031 -2.523557 -7.694045 -1.067684 0.086514 -1.860889 24.694956 -0.339506 11.563880 29.365111 7.040800 0.000000 -69.094499
12.901355 16.738494 0.416502 23.515355 80.672739 42.604707 -8.840110 1.041377 3.187081 -16.376357 -1.547439 -46.421891 -2.410151 1.199117 33.564278 1.074913 4.144809 -7.638667 0.163500 -0.000000 -34.940600 11.770295 -4.675673 0.591517 -3.387936 -8.532142 -0.604740 0.019053 -1.974420 26.411283 -0.406203 11.946248 29.507497 7.327400 0.000000 -67.552700
13.116852 16.648263 0.424542 25.352127 80.741899 43.853891 -8.761621 0.974721 3.000174 -16.557580 -2.140529 -46.128390 -2.152282 1.402322 36.987225 1.270258 4.926046 -9.272693 -0.035900 -0.000000 -31.449100 11.981759 -4.623144 0.323983 -4.268706 -9.317038 -0.238964 -0.057988 -2.095402 28.285934 -0.490533 11.945919 29.616625 7.391900 0.000000 -66.129500
13.330530 16.570080 0.432254 26.794136 80.725827 44.726482 -8.688284 0.925532 2.822587 -16.760789 -2.665790 -45.510864 -1.938396 1.541973 39.848277 1.488625 5.841612 -10.974703 -0.290000 -0.000000 -28.745600 12.182345 -4.546544 0.064528 -5.118698 -9.997530 -0.039948 -0.145250 -2.221479 30.310472 -0.594446 11.464065 29.657589 7.169400 0.000000 -64.964700
13.543579 16.506232 0.439699 27.737981 80.625046 45.155311 -8.622375 0.897867 2.667168 -16.976425 -3.111904 -44.644164 -1.773771 1.625626 42.091563 1.723741 6.847644 -12.682696 -0.601800 0.000001 -27.005100 12.363028 -4.450668 -0.167021 -5.887951 -10.536807 -0.068197 -0.241860 -2.350417 32.469936 -0.719479 10.439680 29.581949 6.617500 -0.000000 -64.124900
13.757124 16.458394 0.446459 28.071603 80.449704 45.061959 -8.572811 0.888648 2.543580 -17.171011 -3.464467 -43.620265 -1.655624 1.662104 43.719578 1.967397 7.891107 -14.337376 -0.964799 -0.000000 -26.248500 12.509148 -4.343384 -0.352549 -6.506048 -10.899932 -0.372156 -0.345526 -2.479603 34.740398 -0.866602 8.846472 29.329974 5.718300 0.000001 -63.583101
13.971658 16.427458 0.452833 27.854382 80.210173 44.518791 -8.538851 0.895183 2.454795 -17.332903 -3.723469 -42.499374 -1.578218 1.657690 44.758035 2.210472 8.925507 -15.871309 -1.361800 0.000000 -26.395700 12.620867 -4.229065 -0.485537 -6.950039 -11.093590 -0.970099 -0.452908 -2.607657 37.090263 -1.035141 6.742193 28.837871 4.512600 -0.000000 -63.214000
